<svg width="313" height="110" viewBox="0 0 313 110" fill="none" xmlns="http://www.w3.org/2000/svg">
<rect width="313" height="110" fill="#1B1C1D"/>
<path d="M20.4234 50.458V48.9222H29.5749V50.458H25.8854V60.7469H24.1071V50.458H20.4234ZM30.5376 60.7469V51.8784H32.2063V53.2872H32.2987C32.4603 52.8099 32.7452 52.4346 33.1532 52.1613C33.5651 51.8841 34.0308 51.7456 34.5505 51.7456C34.6582 51.7456 34.7853 51.7494 34.9315 51.7571C35.0816 51.7648 35.1991 51.7744 35.2837 51.786V53.4373C35.2144 53.418 35.0913 53.3969 34.9142 53.3738C34.7371 53.3468 34.5601 53.3334 34.383 53.3334C33.975 53.3334 33.6112 53.42 33.2918 53.5932C32.9761 53.7625 32.7259 53.9993 32.5412 54.3034C32.3564 54.6036 32.264 54.9462 32.264 55.3311V60.7469H30.5376ZM38.1389 64.0727C37.881 64.0727 37.6462 64.0515 37.4345 64.0092C37.2228 63.9707 37.065 63.9283 36.961 63.8821L37.3767 62.4675C37.6924 62.5522 37.9734 62.5888 38.2197 62.5773C38.4661 62.5657 38.6836 62.4733 38.8722 62.3001C39.0646 62.1269 39.234 61.844 39.3803 61.4514L39.5939 60.8624L36.349 51.8784H38.1966L40.4426 58.7608H40.535L42.781 51.8784H44.6344L40.9796 61.9306C40.8102 62.3925 40.5947 62.7832 40.3329 63.1027C40.0712 63.426 39.7594 63.6685 39.3976 63.8302C39.0358 63.9918 38.6162 64.0727 38.1389 64.0727ZM50.1152 50.458V48.9222H59.2668V50.458H55.5773V60.7469H53.7989V50.458H50.1152ZM62.8768 55.4812V60.7469H61.1505V48.9222H62.8537V53.3218H62.9634C63.1713 52.8445 63.4889 52.4654 63.9161 52.1844C64.3434 51.9034 64.9015 51.7629 65.5905 51.7629C66.1987 51.7629 66.7299 51.888 67.1841 52.1382C67.6422 52.3884 67.9963 52.7617 68.2465 53.2583C68.5005 53.751 68.6276 54.3669 68.6276 55.1059V60.7469H66.9012V55.3138C66.9012 54.6633 66.7338 54.159 66.3989 53.801C66.064 53.4392 65.5982 53.2583 65.0016 53.2583C64.5936 53.2583 64.2279 53.3449 63.9046 53.5181C63.5851 53.6913 63.333 53.9454 63.1482 54.2803C62.9673 54.6113 62.8768 55.0116 62.8768 55.4812ZM74.7536 60.9259C73.8798 60.9259 73.1273 60.7392 72.496 60.3659C71.8686 59.9887 71.3836 59.4594 71.041 58.7781C70.7023 58.0929 70.5329 57.2904 70.5329 56.3704C70.5329 55.462 70.7023 54.6613 71.041 53.9685C71.3836 53.2756 71.8609 52.7348 72.4729 52.346C73.0888 51.9573 73.8086 51.7629 74.6324 51.7629C75.1327 51.7629 75.6178 51.8456 76.0874 52.0112C76.557 52.1767 76.9784 52.4365 77.3518 52.7906C77.7252 53.1447 78.0197 53.6047 78.2352 54.1706C78.4508 54.7325 78.5586 55.4158 78.5586 56.2203V56.8323H71.5087V55.539H76.8668C76.8668 55.0848 76.7744 54.6825 76.5897 54.3322C76.4049 53.9781 76.1451 53.699 75.8102 53.495C75.4792 53.291 75.0904 53.189 74.6439 53.189C74.1589 53.189 73.7355 53.3083 73.3737 53.547C73.0157 53.7818 72.7385 54.0897 72.5422 54.4708C72.3498 54.848 72.2535 55.258 72.2535 55.7006V56.711C72.2535 57.3038 72.3575 57.8081 72.5653 58.2238C72.777 58.6395 73.0715 58.9571 73.4487 59.1765C73.8259 59.392 74.2667 59.4998 74.7709 59.4998C75.0981 59.4998 75.3964 59.4536 75.6659 59.3612C75.9353 59.265 76.1682 59.1226 76.3645 58.934C76.5608 58.7454 76.7109 58.5125 76.8149 58.2353L78.4488 58.5298C78.318 59.011 78.0832 59.4324 77.7444 59.7943C77.4096 60.1522 76.9881 60.4313 76.48 60.6315C75.9757 60.8278 75.4003 60.9259 74.7536 60.9259ZM87.1197 54.0435L85.555 54.3207C85.4895 54.1205 85.3856 53.93 85.2432 53.7491C85.1046 53.5682 84.916 53.42 84.6774 53.3045C84.4387 53.189 84.1404 53.1313 83.7824 53.1313C83.2936 53.1313 82.8855 53.241 82.5584 53.4604C82.2312 53.6759 82.0676 53.955 82.0676 54.2976C82.0676 54.594 82.1773 54.8326 82.3967 55.0135C82.6161 55.1945 82.9702 55.3426 83.4591 55.4581L84.8679 55.7815C85.6839 55.9701 86.2921 56.2607 86.6924 56.6533C87.0927 57.0459 87.2929 57.5559 87.2929 58.1834C87.2929 58.7146 87.1389 59.188 86.831 59.6037C86.5269 60.0156 86.1016 60.3389 85.555 60.5737C85.0122 60.8085 84.3829 60.9259 83.6669 60.9259C82.6738 60.9259 81.8636 60.7142 81.2362 60.2908C80.6087 59.8636 80.2238 59.2573 80.0814 58.4721L81.75 58.218C81.854 58.653 82.0676 58.9821 82.3909 59.2053C82.7143 59.4247 83.1357 59.5344 83.6554 59.5344C84.2212 59.5344 84.6735 59.417 85.0122 59.1822C85.351 58.9436 85.5203 58.653 85.5203 58.3104C85.5203 58.0333 85.4164 57.8004 85.2086 57.6118C85.0045 57.4231 84.6908 57.2807 84.2674 57.1845L82.7662 56.8554C81.9386 56.6668 81.3266 56.3665 80.9301 55.9547C80.5375 55.5428 80.3412 55.0212 80.3412 54.39C80.3412 53.8665 80.4875 53.4084 80.78 53.0158C81.0726 52.6232 81.4767 52.3172 81.9925 52.0978C82.5083 51.8745 83.0992 51.7629 83.7651 51.7629C84.7236 51.7629 85.478 51.9707 86.0284 52.3864C86.5789 52.7983 86.9426 53.3507 87.1197 54.0435ZM93.0133 60.9259C92.1395 60.9259 91.387 60.7392 90.7558 60.3659C90.1283 59.9887 89.6433 59.4594 89.3008 58.7781C88.962 58.0929 88.7927 57.2904 88.7927 56.3704C88.7927 55.462 88.962 54.6613 89.3008 53.9685C89.6433 53.2756 90.1206 52.7348 90.7327 52.346C91.3485 51.9573 92.0683 51.7629 92.8921 51.7629C93.3925 51.7629 93.8775 51.8456 94.3471 52.0112C94.8167 52.1767 95.2382 52.4365 95.6115 52.7906C95.9849 53.1447 96.2794 53.6047 96.4949 54.1706C96.7105 54.7325 96.8183 55.4158 96.8183 56.2203V56.8323H89.7684V55.539H95.1265C95.1265 55.0848 95.0342 54.6825 94.8494 54.3322C94.6646 53.9781 94.4048 53.699 94.0699 53.495C93.7389 53.291 93.3501 53.189 92.9036 53.189C92.4186 53.189 91.9952 53.3083 91.6334 53.547C91.2754 53.7818 90.9983 54.0897 90.8019 54.4708C90.6095 54.848 90.5133 55.258 90.5133 55.7006V56.711C90.5133 57.3038 90.6172 57.8081 90.825 58.2238C91.0367 58.6395 91.3312 58.9571 91.7084 59.1765C92.0857 59.392 92.5264 59.4998 93.0306 59.4998C93.3578 59.4998 93.6561 59.4536 93.9256 59.3612C94.195 59.265 94.4279 59.1226 94.6242 58.934C94.8205 58.7454 94.9706 58.5125 95.0746 58.2353L96.7086 58.5298C96.5777 59.011 96.3429 59.4324 96.0042 59.7943C95.6693 60.1522 95.2478 60.4313 94.7397 60.6315C94.2354 60.8278 93.66 60.9259 93.0133 60.9259Z" fill="#F2F2F2"/>
<path d="M135.836 45.8669L130.351 49.8965C128.862 50.9906 127.982 52.7282 127.982 54.5761V61.9061C127.982 63.8303 129.542 65.3902 131.466 65.3902H134.184C135.467 65.3902 136.506 64.3503 136.506 63.0675V58.8989C136.506 57.3297 137.779 56.0575 139.348 56.0575C140.917 56.0575 142.189 57.3297 142.189 58.8989V63.0675C142.189 64.3503 143.229 65.3902 144.512 65.3902H146.756C148.68 65.3902 150.24 63.8303 150.24 61.9061V54.502C150.24 52.6958 149.4 50.9925 147.966 49.8936L142.807 45.9381C140.757 44.367 137.917 44.338 135.836 45.8669Z" fill="white"/>
<path d="M189.189 53.8778C189.189 58.5696 185.357 62.3868 180.613 62.3868C175.868 62.3868 172.036 58.5696 172.036 53.8778C172.036 49.186 175.868 45.3688 180.613 45.3688C185.357 45.3688 189.189 49.186 189.189 53.8778Z" stroke="#999999" stroke-width="2.32273"/>
<path d="M187.104 60.3247L191.741 64.9296" stroke="#999999" stroke-width="2.32273" stroke-linecap="round"/>
<path fill-rule="evenodd" clip-rule="evenodd" d="M226.375 64.0702C225.533 64.8223 224.26 64.8223 223.417 64.0702V64.0702C218.163 59.3774 214.695 56.2807 214.695 52.4914C214.695 49.3946 217.158 46.9705 220.306 46.9705C222.081 46.9705 223.784 47.7835 224.896 49.0634C226.008 47.7835 227.712 46.9705 229.487 46.9705C232.634 46.9705 235.098 49.3946 235.098 52.4914C235.098 56.2807 231.629 59.3774 226.375 64.0702V64.0702Z" stroke="#999999" stroke-width="2.32273"/>
<path d="M277.063 47.7762H258.515L265.649 54.6139M277.063 47.7762L267.551 63.8935L265.649 54.6139M277.063 47.7762L265.649 54.6139" stroke="#999999" stroke-width="1.74205" stroke-linecap="round" stroke-linejoin="round"/>
</svg>
